<svg version="1.1" preserveAspectRatio="none" xmlns="http://www.w3.org/2000/svg" width="500" height="500" viewBox="0 0 500 500"><rect width="100%" height="100%" fill="#0F222D" fill-opacity="1"/><svg viewBox="590.7173 642 318.5658 120" width="333" height="125.43719382306575" x="83.5px" y="187.2814px" xmlns="http://www.w3.org/2000/svg" xmlns:xlink="http://www.w3.org/1999/xlink" preserveAspectRatio="none"><defs></defs><style>.companyName {fill:#EBE7D9;fill-opacity:1;}.icon3 {fill:#F55139;fill-opacity:1;}.icon3-str {stroke:#F55139;stroke-opacity:1;}</style><g opacity="1" transform="rotate(0 590.7173 642)">
<svg width="318.5658" height="120" x="590.7173" y="642" version="1.1" preserveAspectRatio="none" viewBox="-2.52 -28.48 76.88 28.96">
  <g transform="matrix(1 0 0 1 0 0)" class="icon3"><path id="id-fAwcDUYEQ3" d="M22.40 0L21.08-6L8.04-6L4.40 0L-2.52 0L15.60-28L22-28L28.88 0L22.40 0ZM11.04-10.92L20-10.92L17.64-21.72L11.04-10.92Z M51.60-6.04L53.24-14.44L59.16-14.44L56.84-2.92Q54.72-1.28 51.92-0.40Q49.12 0.48 46.12 0.48L46.12 0.48Q41.92 0.48 38.80-1.04Q35.68-2.56 33.98-5.32Q32.28-8.08 32.28-11.68L32.28-11.68Q32.28-16.44 34.48-20.28Q36.68-24.12 40.68-26.30Q44.68-28.48 49.88-28.48L49.88-28.48Q53.88-28.48 56.82-27.24Q59.76-26 61.56-23.60L61.56-23.60L56.92-19.84Q55.52-21.48 53.76-22.22Q52-22.96 49.60-22.96L49.60-22.96Q46.40-22.96 43.96-21.54Q41.52-20.12 40.18-17.64Q38.84-15.16 38.84-12.08L38.84-12.08Q38.84-8.84 40.94-6.94Q43.04-5.04 46.96-5.04L46.96-5.04Q49.44-5.04 51.60-6.04L51.60-6.04Z M62.24 0L67.84-28L74.36-28L68.76 0L62.24 0Z"/></g>
</svg>
</g><g opacity="1" transform="rotate(0 602.403 642)">
<svg width="295.1943" height="120" x="602.403" y="642" version="1.1" preserveAspectRatio="none" viewBox="-0.36 -28.48 71.24000000000001 28.96">
  <g transform="matrix(1 0 0 1 0 0)" class="companyName"><path id="id-D6z1nYkh3" d="M24.24 0L21.76-6L8.76-6L6.28 0L-0.36 0L12.12-28L18.52-28L31.04 0L24.24 0ZM10.84-10.92L19.72-10.92L15.28-21.64L10.84-10.92Z M52.48-6.24L52.48-14.44L58.40-14.44L58.40-3.08Q56.12-1.36 53.12-0.44Q50.12 0.48 47.08 0.48L47.08 0.48Q42.72 0.48 39.24-1.38Q35.76-3.24 33.78-6.54Q31.80-9.84 31.80-14L31.80-14Q31.80-18.16 33.78-21.46Q35.76-24.76 39.28-26.62Q42.80-28.48 47.20-28.48L47.20-28.48Q50.88-28.48 53.88-27.24Q56.88-26 58.92-23.64L58.92-23.64L54.76-19.80Q51.76-22.96 47.52-22.96L47.52-22.96Q44.84-22.96 42.76-21.84Q40.68-20.72 39.52-18.68Q38.36-16.64 38.36-14L38.36-14Q38.36-11.40 39.52-9.36Q40.68-7.32 42.74-6.18Q44.80-5.04 47.44-5.04L47.44-5.04Q50.24-5.04 52.48-6.24L52.48-6.24Z M64.40 0L64.40-28L70.88-28L70.88 0L64.40 0Z"/></g>
</svg>
</g></svg></svg>