<svg width="64" height="32" viewBox="0 0 64 32" fill="none" xmlns="http://www.w3.org/2000/svg">
<path d="M56.5924 25.3626C56.5924 25.3626 59.5758 21.5019 59.5862 16.4645C59.607 6.5755 52.6317 0.154854 42.9121 0.144532C37.2778 0.134209 32.4959 2.85937 29.5956 6.85421C29.4917 6.70969 29.3877 6.5755 29.2837 6.43098C26.8616 3.2413 22.6723 0.0103383 16.1752 1.57079e-05C8.5346 -0.0103069 2.63003 5.0684 0.686094 11.2723C0.665303 11.3445 0.644513 11.4271 0.623722 11.4994V11.5097C0.218303 12.9032 0 14.369 0 15.8865C0.0103954 17.3316 0.207907 18.7252 0.550954 20.0361C1.77761 24.5677 4.96899 28.3045 9.17911 30.3174C9.21029 30.3277 9.24148 30.3484 9.28306 30.369C9.30385 30.3794 9.32464 30.3897 9.34543 30.4C11.4661 31.36 13.8466 31.8968 16.3831 31.9071C21.7471 31.8658 26.4978 29.2542 29.4293 25.2594C29.4917 25.1768 29.5436 25.0942 29.606 25.0116C32.4335 29.0581 37.1322 32 42.964 32C46.8311 32 49.5651 30.3587 50.0641 30.1006L51.0932 31.4426H61L56.5924 25.3626ZM16.2895 23.1329C12.8279 23.1329 8.89843 20.4181 8.82567 16.0619C8.7425 11.551 12.672 8.59872 16.2895 8.72259C19.2314 8.82582 20.3541 9.66195 21.9862 11.2619C21.9862 11.2619 24.3563 11.2619 26.7681 11.2619C26.9552 11.2619 27.1319 11.2619 27.319 11.2619C27.319 11.2619 27.319 11.2619 27.319 11.2723C27.0903 11.9742 26.9136 12.6865 26.7889 13.409H17.4434V20.9136H21.5392C21.5392 21.1097 19.4393 23.1329 16.2895 23.1329ZM50.5631 18.1574L49.721 17.0219H39.6687L43.7541 22.8852C39.5024 23.711 35.4794 20.1807 35.5418 16.0723C35.6041 11.871 39.0138 8.73291 43.0992 8.75356C47.5796 8.78453 52.0392 13.5742 50.5631 18.1574Z" fill="white"/>
</svg>
